<svg width="472" height="72" viewBox="0 0 472 72" fill="none" xmlns="http://www.w3.org/2000/svg">
<g clip-path="url(#clip0_1303_308)">
<path d="M26.2888 0.802246H6.83007C4.62772 0.802246 2.92717 1.38311 1.7563 2.54485C0.585435 3.70659 0 5.39387 0 7.57904V64.2275C0 66.4127 0.585435 68.1 1.7563 69.2617C2.92717 70.4235 4.62772 71.0043 6.83007 71.0043H26.2888C32.2547 71.0043 37.5236 70.2298 42.0956 68.6532C46.6675 67.1042 50.5704 64.8084 53.7485 61.8211C56.9266 58.8337 59.3241 55.1549 60.9689 50.8122C62.6137 46.4696 63.4221 41.463 63.4221 35.8203C63.4221 24.5349 60.1883 15.8772 53.7485 9.81953C47.2808 3.81723 38.1369 0.802246 26.2888 0.802246ZM48.4796 46.6632C47.476 49.7611 45.9427 52.3059 43.9076 54.3251C41.8725 56.3443 39.3357 57.8656 36.2691 58.9167C33.2304 59.9402 29.6342 60.4657 25.4804 60.4657H12.8238V11.3409H25.4804C33.6486 11.3409 39.7538 13.3601 43.8519 17.4261C47.922 21.4646 49.985 27.6052 49.985 35.848C49.985 39.9694 49.4832 43.5652 48.4796 46.6632Z" fill="#343434"/>
<path d="M106.438 5.36612C105.574 3.42989 104.515 2.07453 103.288 1.24472C102.061 0.414906 100.667 0 99.1341 0C97.6008 0 96.0954 0.414906 94.8688 1.24472C93.6422 2.07453 92.5828 3.45755 91.7186 5.36612L65.2346 63.6189C64.5656 65.1402 64.3425 66.5232 64.5377 67.7403C64.7328 68.9574 65.3183 69.9531 66.294 70.6723C67.2697 71.3915 68.5521 71.7787 70.169 71.7787C71.8974 71.7787 73.2356 71.3362 74.1834 70.4787C75.1313 69.6212 76.0234 68.2105 76.8876 66.302L81.822 54.7399H116.335L121.353 66.302C122.161 68.1552 123.081 69.5382 124.113 70.4234C125.144 71.3085 126.594 71.7787 128.489 71.7787C130.023 71.7787 131.277 71.4191 132.197 70.7276C133.145 70.0361 133.703 69.0403 133.898 67.7956C134.093 66.5232 133.842 65.1402 133.089 63.6189L106.438 5.36612ZM98.9111 14.6323H99.1062L111.902 44.6162H86.1988L98.9111 14.6323Z" fill="#343434"/>
<path d="M184.579 34.7685C187.534 33.6621 189.959 32.0025 191.855 29.762C194.336 26.83 195.563 23.2618 195.563 19.0021C195.563 15.2126 194.643 11.9764 192.803 9.23801C190.963 6.52729 188.315 4.4251 184.83 2.9591C181.345 1.4931 177.136 0.773926 172.173 0.773926H148.087C145.885 0.773926 144.184 1.35479 143.013 2.51653C141.842 3.67827 141.257 5.36555 141.257 7.55072V64.1992C141.257 66.3844 141.842 68.0717 143.013 69.2334C144.184 70.3951 145.885 70.976 148.087 70.976H173.289C180.843 70.976 186.754 69.2611 190.991 65.8588C195.228 62.4289 197.375 57.616 197.375 51.3648C197.375 46.5795 196.009 42.7071 193.249 39.7198C191.075 37.341 188.147 35.709 184.579 34.7685ZM153.607 10.4551H169.971C174.376 10.4551 177.693 11.3125 179.868 12.9998C182.042 14.6871 183.129 17.2042 183.129 20.5234C183.129 23.8427 182.042 26.3598 179.868 28.0471C177.693 29.7344 174.404 30.5918 169.971 30.5918H153.607V10.4551ZM181.708 58.6948C179.561 60.465 176.216 61.3225 171.672 61.3225H153.607V40.2176H171.672C176.216 40.2176 179.561 41.0751 181.708 42.8177C183.854 44.5327 184.914 47.1881 184.914 50.7839C184.914 54.3798 183.854 56.9522 181.708 58.6948Z" fill="#343434"/>
<path d="M247.862 21.519C245.854 21.519 244.321 22.0446 243.234 23.068C242.174 24.0915 241.617 25.6681 241.617 27.798V49.705C241.617 53.4945 240.558 56.5371 238.411 58.8052C236.264 61.1011 233.532 62.2351 230.187 62.2351C227.12 62.2351 224.862 61.4053 223.468 59.7457C222.075 58.0861 221.35 55.5413 221.35 52.0838V27.798C221.35 25.6681 220.792 24.0915 219.705 23.068C218.59 22.0446 217.057 21.519 215.049 21.519C213.042 21.519 211.509 22.0446 210.422 23.068C209.362 24.0915 208.805 25.6681 208.805 27.798V51.8902C208.805 56.3435 209.446 60.05 210.756 63.0373C212.066 66.0246 214.046 68.2651 216.722 69.7588C219.398 71.2524 222.771 71.9993 226.87 71.9993C230.968 71.9993 234.118 71.0311 236.961 69.1226C238.996 67.7396 240.641 65.9416 241.924 63.7288V65.4437C241.924 67.4906 242.453 69.0673 243.54 70.1737C244.6 71.2801 246.105 71.8056 248.057 71.8056C252.127 71.8056 254.19 69.6758 254.19 65.4437V27.798C254.19 25.6681 253.632 24.0915 252.545 23.068C251.43 22.0446 249.897 21.519 247.889 21.519H247.862Z" fill="#343434"/>
<path d="M306.852 24.3965C303.646 22.3496 299.854 21.2985 295.506 21.2985C291.435 21.2985 287.839 22.2943 284.773 24.2858C282.57 25.6965 280.925 27.4391 279.755 29.5136V6.27891C279.755 4.23204 279.197 2.6554 278.11 1.6043C277.022 0.553208 275.461 0 273.454 0C271.447 0 269.914 0.525547 268.826 1.6043C267.767 2.6554 267.209 4.23204 267.209 6.27891V65.4168C267.209 67.4637 267.739 69.0403 268.826 70.1468C269.886 71.2532 271.447 71.7787 273.454 71.7787C275.461 71.7787 276.911 71.2255 277.97 70.1468C279.03 69.0403 279.587 67.4637 279.587 65.4168V63.3423C280.73 65.5551 282.403 67.4084 284.661 68.902C287.783 70.9489 291.407 72 295.561 72C299.715 72 303.618 70.9766 306.852 68.902C310.086 66.8552 312.623 63.8955 314.435 60.0784C316.247 56.2612 317.139 51.7526 317.139 46.5801C317.139 41.4076 316.247 36.8436 314.435 33.0818C312.623 29.32 310.113 26.4157 306.908 24.3688L306.852 24.3965ZM302.893 55.4038C301.862 57.7549 300.412 59.5252 298.516 60.7422C296.621 61.9593 294.474 62.5401 291.993 62.5401C288.257 62.5401 285.246 61.1848 282.96 58.5017C280.674 55.8187 279.559 51.8356 279.559 46.6078C279.559 43.0949 280.089 40.1629 281.121 37.7841C282.152 35.433 283.602 33.6627 285.497 32.501C287.365 31.3392 289.54 30.7584 292.021 30.7584C295.756 30.7584 298.767 32.0584 301.053 34.6861C303.339 37.3139 304.454 41.2693 304.454 46.5801C304.454 50.093 303.925 53.025 302.893 55.4038Z" fill="#343434"/>
<path d="M367.068 24.3965C363.862 22.3496 360.07 21.2985 355.721 21.2985C351.651 21.2985 348.055 22.2943 344.988 24.2858C342.786 25.6965 341.141 27.4391 339.97 29.5136V6.27891C339.97 4.23204 339.413 2.6554 338.326 1.6043C337.238 0.553208 335.677 0 333.67 0C331.663 0 330.129 0.525547 329.042 1.6043C327.983 2.6554 327.425 4.23204 327.425 6.27891V65.4168C327.425 67.4637 327.955 69.0403 329.042 70.1468C330.102 71.2532 331.663 71.7787 333.67 71.7787C335.677 71.7787 337.127 71.2255 338.186 70.1468C339.246 69.0403 339.803 67.4637 339.803 65.4168V63.3423C340.946 65.5551 342.619 67.4084 344.877 68.902C347.999 70.9489 351.623 72 355.777 72C359.931 72 363.834 70.9766 367.068 68.902C370.301 66.8552 372.838 63.8955 374.65 60.0784C376.462 56.2612 377.355 51.7526 377.355 46.5801C377.355 41.4076 376.462 36.8436 374.65 33.0818C372.838 29.32 370.329 26.4157 367.123 24.3688L367.068 24.3965ZM363.109 55.4038C362.077 57.7549 360.628 59.5252 358.732 60.7422C356.836 61.9593 354.69 62.5401 352.209 62.5401C348.473 62.5401 345.462 61.1848 343.176 58.5017C340.89 55.8187 339.775 51.8356 339.775 46.6078C339.775 43.0949 340.305 40.1629 341.336 37.7841C342.368 35.433 343.817 33.6627 345.713 32.501C347.581 31.3392 349.755 30.7584 352.237 30.7584C355.972 30.7584 358.983 32.0584 361.269 34.6861C363.555 37.3139 364.67 41.2693 364.67 46.5801C364.67 50.093 364.14 53.025 363.109 55.4038Z" fill="#343434"/>
<path d="M410.641 61.5444C410.167 61.5997 409.693 61.655 409.247 61.6827C408.773 61.7103 408.272 61.738 407.742 61.738C405.344 61.738 403.477 61.0188 402.166 59.5528C400.856 58.0868 400.215 55.8463 400.215 52.776V6.27891C400.215 4.23204 399.657 2.6554 398.57 1.6043C397.483 0.553208 395.922 0 393.915 0C391.907 0 390.374 0.525547 389.287 1.6043C388.227 2.6554 387.67 4.23204 387.67 6.27891V53.3846C387.67 59.4975 389.064 64.1168 391.88 67.2701C394.695 70.4234 398.877 72 404.425 72C405.149 72 405.902 71.9723 406.627 71.8894C407.352 71.834 408.077 71.7511 408.746 71.6957C410.279 71.5021 411.394 70.9212 412.063 70.0084C412.732 69.068 413.067 67.7956 413.067 66.136C413.067 64.1998 412.899 62.9274 412.565 62.2912C412.23 61.655 411.589 61.4061 410.669 61.5444H410.641Z" fill="#343434"/>
<path d="M459.315 58.6124C458.256 58.5017 457.001 58.8613 455.607 59.6635C453.656 60.7146 451.621 61.4614 449.446 61.904C447.272 62.3465 445.32 62.5402 443.564 62.5402C438.546 62.5402 434.755 61.1848 432.162 58.5017C430.127 56.3719 428.928 53.3569 428.51 49.4845H458.813C460.347 49.4845 461.545 49.1802 462.382 48.544C463.218 47.9078 463.636 46.995 463.636 45.8056C463.636 42.0161 463.106 38.6139 462.075 35.5989C461.043 32.584 459.538 30.0115 457.559 27.8817C455.579 25.7518 453.21 24.1199 450.422 23.0135C447.634 21.8794 444.512 21.3262 441.027 21.3262C436.288 21.3262 432.051 22.4049 428.343 24.5624C424.635 26.7199 421.708 29.6796 419.617 33.4691C417.498 37.2586 416.467 41.6566 416.467 46.7184C416.467 51.7803 417.554 56.3719 419.729 60.1614C421.903 63.9508 424.997 66.8552 429.012 68.9297C433.026 70.9766 437.821 72.0277 443.369 72.0277C445.989 72.0277 448.805 71.6681 451.844 70.9766C454.882 70.2851 457.587 69.2063 459.928 67.7403C461.127 67.0211 461.991 66.136 462.493 65.1402C462.995 64.1445 463.19 63.1764 463.051 62.2082C462.911 61.2401 462.521 60.438 461.908 59.7741C461.267 59.1103 460.43 58.723 459.343 58.64L459.315 58.6124ZM434.364 31.7265C436.344 30.4264 438.741 29.7903 441.529 29.7903C444.066 29.7903 446.185 30.3435 447.913 31.4222C449.614 32.5286 450.924 34.1053 451.816 36.1521C452.569 37.8671 452.987 39.9416 453.126 42.3204H428.51C428.761 40.4395 429.179 38.6969 429.848 37.2032C430.88 34.8521 432.385 33.0265 434.364 31.7265Z" fill="#343434"/>
</g>
<defs>
<clipPath id="clip0_1303_308">
<rect width="472" height="72" fill="white"/>
</clipPath>
</defs>
</svg>
