<svg width="21" height="22" viewBox="0 0 21 22" fill="none" xmlns="http://www.w3.org/2000/svg">
<path d="M2 21.2C1.45 21.2 0.979167 21.0042 0.5875 20.6125C0.195833 20.2209 0 19.75 0 19.2V5.20005C0 4.65005 0.195833 4.17922 0.5875 3.78755C0.979167 3.39588 1.45 3.20005 2 3.20005H10.925L8.925 5.20005H2V19.2H16V12.25L18 10.25V19.2C18 19.75 17.8042 20.2209 17.4125 20.6125C17.0208 21.0042 16.55 21.2 16 21.2H2ZM13.175 3.77505L14.6 5.17505L8 11.775V13.2H9.4L16.025 6.57505L17.45 7.97505L10.825 14.6C10.6417 14.7834 10.4292 14.9292 10.1875 15.0375C9.94583 15.1459 9.69167 15.2 9.425 15.2H7C6.71667 15.2 6.47917 15.1042 6.2875 14.9125C6.09583 14.7209 6 14.4834 6 14.2V11.775C6 11.5084 6.05 11.2542 6.15 11.0125C6.25 10.7709 6.39167 10.5584 6.575 10.375L13.175 3.77505ZM17.45 7.97505L13.175 3.77505L15.675 1.27505C16.075 0.875049 16.5542 0.675049 17.1125 0.675049C17.6708 0.675049 18.1417 0.875049 18.525 1.27505L19.925 2.70005C20.3083 3.08338 20.5 3.55005 20.5 4.10005C20.5 4.65005 20.3083 5.11672 19.925 5.50005L17.45 7.97505Z" fill="white"/>
</svg>
