<svg width="40" height="41" viewBox="0 0 40 41" fill="none" xmlns="http://www.w3.org/2000/svg">
<mask id="mask0_6194_22262" style="mask-type:alpha" maskUnits="userSpaceOnUse" x="8" y="8" width="24" height="25">
<rect x="8" y="8.5" width="24" height="24" fill="#D9D9D9"/>
</mask>
<g mask="url(#mask0_6194_22262)">
<path d="M18.875 27.8001L12.275 21.2001C12.175 21.1001 12.104 20.9917 12.062 20.8751C12.0207 20.7584 12 20.6334 12 20.5001C12 20.3667 12.0207 20.2417 12.062 20.1251C12.104 20.0084 12.175 19.9001 12.275 19.8001L18.875 13.2001C19.0583 13.0167 19.2873 12.9207 19.562 12.9121C19.8373 12.9041 20.075 13.0001 20.275 13.2001C20.475 13.3834 20.5793 13.6124 20.588 13.8871C20.596 14.1624 20.5 14.4001 20.3 14.6001L15.4 19.5001H26.575C26.8583 19.5001 27.096 19.5957 27.288 19.7871C27.4793 19.9791 27.575 20.2167 27.575 20.5001C27.575 20.7834 27.4793 21.0207 27.288 21.2121C27.096 21.4041 26.8583 21.5001 26.575 21.5001H15.4L20.3 26.4001C20.4833 26.5834 20.5793 26.8167 20.588 27.1001C20.596 27.3834 20.5 27.6167 20.3 27.8001C20.1167 28.0001 19.8833 28.1001 19.6 28.1001C19.3167 28.1001 19.075 28.0001 18.875 27.8001Z" fill="black"/>
</g>
</svg>
