<svg width="20" height="17" viewBox="0 0 20 17" fill="none" xmlns="http://www.w3.org/2000/svg">
<g clip-path="url(#clip0_1331_14)">
<path d="M2 16.5C1.45 16.5 0.979333 16.3043 0.588 15.913C0.196 15.521 0 15.05 0 14.5V2.5C0 1.95 0.196 1.47933 0.588 1.088C0.979333 0.696 1.45 0.5 2 0.5H18C18.55 0.5 19.021 0.696 19.413 1.088C19.8043 1.47933 20 1.95 20 2.5V14.5C20 15.05 19.8043 15.521 19.413 15.913C19.021 16.3043 18.55 16.5 18 16.5H2ZM18 4.5L10.525 9.175C10.4417 9.225 10.354 9.26233 10.262 9.287C10.1707 9.31233 10.0833 9.325 10 9.325C9.91667 9.325 9.82933 9.31233 9.738 9.287C9.646 9.26233 9.55833 9.225 9.475 9.175L2 4.5V14.5H18V4.5ZM10 7.5L18 2.5H2L10 7.5ZM2 4.75V3.275V3.3V3.287V4.75Z" fill="white"/>
</g>
<defs>
<clipPath id="clip0_1331_14">
<rect width="20" height="16" fill="white" transform="translate(0 0.5)"/>
</clipPath>
</defs>
</svg>
