<svg width="8" height="13" viewBox="0 0 8 13" fill="none" xmlns="http://www.w3.org/2000/svg">
<path d="M0.22933 6.37745C0.22933 6.20384 0.264052 6.0344 0.333497 5.86912C0.402941 5.70454 0.507108 5.5528 0.645996 5.41391L5.48975 0.570163C5.75016 0.309747 6.07586 0.183705 6.46683 0.192038C6.85711 0.201066 7.18245 0.335788 7.44287 0.596205C7.70329 0.856621 7.8335 1.18232 7.8335 1.57329C7.8335 1.96357 7.70329 2.28891 7.44287 2.54933L3.5887 6.37745L7.44287 10.2316C7.70329 10.492 7.8335 10.8174 7.8335 11.2077C7.8335 11.5986 7.70329 11.9243 7.44287 12.1847C7.18245 12.4452 6.85711 12.5754 6.46683 12.5754C6.07586 12.5754 5.75016 12.4452 5.48975 12.1847L0.645996 7.341C0.507107 7.20211 0.402941 7.05037 0.333497 6.88579C0.264052 6.72051 0.22933 6.55107 0.22933 6.37745Z" fill="#535AF1"/>
</svg>
