<svg width="7" height="12" viewBox="0 0 7 12" fill="none" xmlns="http://www.w3.org/2000/svg">
<g clip-path="url(#clip0_1320_157)">
<path d="M0.0105743 6.00016C0.0105743 5.86127 0.0366168 5.7269 0.0887003 5.59704C0.140784 5.46648 0.210228 5.3578 0.297034 5.271L5.08869 0.479329C5.27967 0.288357 5.52272 0.192871 5.81786 0.192871C6.113 0.192871 6.35606 0.288357 6.54703 0.479329C6.738 0.670301 6.83349 0.913357 6.83349 1.2085C6.83349 1.50363 6.738 1.74669 6.54703 1.93766L2.48453 6.00016L6.54703 10.0627C6.738 10.2536 6.83349 10.4967 6.83349 10.7918C6.83349 11.087 6.738 11.33 6.54703 11.521C6.35606 11.712 6.113 11.8075 5.81786 11.8075C5.52272 11.8075 5.27967 11.712 5.08869 11.521L0.297034 6.72933C0.192867 6.62516 0.119256 6.51231 0.0762 6.39079C0.0324502 6.26926 0.0105743 6.13905 0.0105743 6.00016Z" fill="white"/>
</g>
<defs>
<clipPath id="clip0_1320_157">
<rect width="7" height="12" fill="white"/>
</clipPath>
</defs>
</svg>
