<svg width="22" height="22" viewBox="0 0 22 22" fill="none" xmlns="http://www.w3.org/2000/svg">
<path d="M9.6002 12.4L7.6252 10.425C7.3752 10.175 7.06686 10.05 6.7002 10.05C6.33353 10.05 6.0252 10.175 5.7752 10.425C5.5252 10.675 5.4002 10.9833 5.4002 11.35C5.4002 11.7166 5.5252 12.025 5.7752 12.275L8.6752 15.175C8.93883 15.4416 9.2464 15.575 9.59792 15.575C9.94944 15.575 10.2585 15.4416 10.5252 15.175L16.2752 9.42495C16.5252 9.17495 16.6502 8.86662 16.6502 8.49995C16.6502 8.13328 16.5252 7.82495 16.2752 7.57495C16.0252 7.32495 15.7169 7.19995 15.3502 7.19995C14.9835 7.19995 14.6752 7.32495 14.4252 7.57495L9.6002 12.4ZM11.0002 21.8C9.5062 21.8 8.1022 21.5165 6.7882 20.9495C5.4742 20.3825 4.3312 19.613 3.3592 18.641C2.3872 17.669 1.6177 16.526 1.0507 15.212C0.483695 13.898 0.200195 12.494 0.200195 11C0.200195 9.50168 0.484187 8.09368 1.05217 6.77593C1.62015 5.45816 2.39099 4.31189 3.36467 3.33713C4.33835 2.36234 5.48135 1.59578 6.79365 1.03745C8.10595 0.479118 9.50813 0.199951 11.0002 0.199951C12.4983 0.199951 13.9062 0.479118 15.2238 1.03745C16.5414 1.59578 17.6877 2.36245 18.6627 3.33745C19.6377 4.31245 20.4044 5.45898 20.9627 6.77703C21.521 8.09509 21.8002 9.50343 21.8002 11.002C21.8002 12.5006 21.521 13.9041 20.9627 15.2125C20.4044 16.5208 19.6378 17.6618 18.663 18.6355C17.6883 19.6092 16.542 20.38 15.2242 20.948C13.9065 21.516 12.4985 21.8 11.0002 21.8ZM11.0002 19.15C13.2754 19.15 15.2025 18.3604 16.7816 16.7814C18.3607 15.2023 19.1502 13.2752 19.1502 11C19.1502 8.72473 18.3607 6.7976 16.7816 5.21855C15.2025 3.63948 13.2754 2.84995 11.0002 2.84995C8.72498 2.84995 6.79785 3.63948 5.2188 5.21855C3.63973 6.7976 2.8502 8.72473 2.8502 11C2.8502 13.2752 3.63973 15.2023 5.2188 16.7814C6.79785 18.3604 8.72498 19.15 11.0002 19.15Z" fill="#535AF1"/>
</svg>
