<svg width="24" height="13" viewBox="0 0 24 13" fill="none" xmlns="http://www.w3.org/2000/svg">
<g clip-path="url(#clip0_1331_24)">
<path d="M0 13V11.2938C0 10.5174 0.366667 9.88542 1.1 9.39792C1.83333 8.91042 2.8 8.66667 4 8.66667C4.21667 8.66667 4.425 8.67118 4.625 8.68021C4.825 8.68924 5.01667 8.71181 5.2 8.74792C4.96667 9.12708 4.79167 9.52431 4.675 9.93958C4.55833 10.3549 4.5 10.7882 4.5 11.2396V13H0ZM6 13V11.2396C6 10.6618 6.14583 10.1337 6.4375 9.65521C6.72917 9.17674 7.14167 8.75694 7.675 8.39583C8.20833 8.03472 8.84583 7.76389 9.5875 7.58333C10.3292 7.40278 11.1333 7.3125 12 7.3125C12.8833 7.3125 13.6958 7.40278 14.4375 7.58333C15.1792 7.76389 15.8167 8.03472 16.35 8.39583C16.8833 8.75694 17.2917 9.17674 17.575 9.65521C17.8583 10.1337 18 10.6618 18 11.2396V13H6ZM19.5 13V11.2396C19.5 10.7701 19.4458 10.3278 19.3375 9.9125C19.2292 9.49722 19.0667 9.10903 18.85 8.74792C19.0333 8.71181 19.2208 8.68924 19.4125 8.68021C19.6042 8.67118 19.8 8.66667 20 8.66667C21.2 8.66667 22.1667 8.9059 22.9 9.38438C23.6333 9.86285 24 10.4993 24 11.2938V13H19.5ZM8.125 10.8333H15.9C15.7333 10.4722 15.2708 10.1563 14.5125 9.88542C13.7542 9.61458 12.9167 9.47917 12 9.47917C11.0833 9.47917 10.2458 9.61458 9.4875 9.88542C8.72917 10.1563 8.275 10.4722 8.125 10.8333ZM4 7.58333C3.45 7.58333 2.97917 7.37118 2.5875 6.94688C2.19583 6.52257 2 6.0125 2 5.41667C2 4.80278 2.19583 4.28819 2.5875 3.87292C2.97917 3.45764 3.45 3.25 4 3.25C4.56667 3.25 5.04167 3.45764 5.425 3.87292C5.80833 4.28819 6 4.80278 6 5.41667C6 6.0125 5.80833 6.52257 5.425 6.94688C5.04167 7.37118 4.56667 7.58333 4 7.58333ZM20 7.58333C19.45 7.58333 18.9792 7.37118 18.5875 6.94688C18.1958 6.52257 18 6.0125 18 5.41667C18 4.80278 18.1958 4.28819 18.5875 3.87292C18.9792 3.45764 19.45 3.25 20 3.25C20.5667 3.25 21.0417 3.45764 21.425 3.87292C21.8083 4.28819 22 4.80278 22 5.41667C22 6.0125 21.8083 6.52257 21.425 6.94688C21.0417 7.37118 20.5667 7.58333 20 7.58333ZM12 6.5C11.1667 6.5 10.4583 6.18403 9.875 5.55208C9.29167 4.92014 9 4.15278 9 3.25C9 2.32917 9.29167 1.55729 9.875 0.934375C10.4583 0.311458 11.1667 0 12 0C12.85 0 13.5625 0.311458 14.1375 0.934375C14.7125 1.55729 15 2.32917 15 3.25C15 4.15278 14.7125 4.92014 14.1375 5.55208C13.5625 6.18403 12.85 6.5 12 6.5ZM12 4.33333C12.2833 4.33333 12.5208 4.22951 12.7125 4.02188C12.9042 3.81424 13 3.55694 13 3.25C13 2.94306 12.9042 2.68576 12.7125 2.47813C12.5208 2.27049 12.2833 2.16667 12 2.16667C11.7167 2.16667 11.4792 2.27049 11.2875 2.47813C11.0958 2.68576 11 2.94306 11 3.25C11 3.55694 11.0958 3.81424 11.2875 4.02188C11.4792 4.22951 11.7167 4.33333 12 4.33333Z" fill="white"/>
</g>
<defs>
<clipPath id="clip0_1331_24">
<rect width="24" height="13" fill="white"/>
</clipPath>
</defs>
</svg>
